<svg
  width="135"
  height="40"
  viewBox="0 0 135 40"
  fill="none"
  xmlns="http://www.w3.org/2000/svg"
>
<path
    d="M109.748 10.1427H105.48C105.218 10.1427 104.993 10.3111 104.9 10.5545L100.183 23.4334C100.052 23.9201 99.3964 23.9388 99.2279 23.4708V23.4334L94.5107 10.5545C94.4171 10.3111 94.1924 10.1427 93.9304 10.1427H89.6624C89.2318 10.1427 88.9323 10.5732 89.0821 10.985L96.7008 30.5655C96.8693 30.9773 96.8693 31.4265 96.7195 31.8384L96.0082 33.8601C95.4653 35.3763 93.5373 35.2453 92.3767 34.7773C92.0584 34.6463 91.684 34.8147 91.5717 35.133L90.4298 38.3153C90.3363 38.596 90.4299 38.9143 90.7106 39.064C91.8712 39.7005 92.9757 39.9251 93.8929 39.9251C96.5136 39.9251 99.3028 39.1951 100.763 35.4886C100.913 35.1704 102.354 31.3517 102.354 31.3517L110.329 10.985C110.478 10.5732 110.197 10.1427 109.748 10.1427V10.1427ZM66.544 27.1024C66.4504 26.8029 66.1509 26.6344 65.8514 26.6905C64.672 26.8965 63.9981 26.26 63.5302 25.7359C63.0809 25.2492 55.3685 14.7289 55.3685 14.7289L66.4878 2.84211C66.8622 2.449 66.5814 1.81255 66.0386 1.81255H60.6661C60.4976 1.81255 60.3292 1.88742 60.2168 1.99974L48.536 14.4855C48.1616 14.8974 47.469 14.6166 47.469 14.055V2.449C47.469 2.11205 47.1882 1.83126 46.8512 1.83126H42.6768C42.3399 1.83126 42.0591 2.11205 42.0591 2.449V31.0709C42.0591 31.4078 42.3399 31.6886 42.6768 31.6886H46.8512C47.1882 31.6886 47.469 31.4078 47.469 31.0709V23.8078C47.469 23.3398 47.6562 22.8718 47.9744 22.5349L51.6247 18.6974C54.7882 23.1339 57.7272 27.3083 59.337 29.3674C60.6848 31.0896 61.8454 31.8571 63.6425 31.8571C65.4395 31.8571 66.4691 31.3517 67.3115 30.5842C67.4799 30.4344 67.5361 30.1723 67.4612 29.9477L66.544 27.0837V27.1024ZM88.5392 17.0501C88.221 16.0205 87.753 15.0471 87.0978 14.0924C85.1697 11.2658 81.8377 9.61851 78.5244 9.61851C72.7214 9.61851 67.873 14.5979 67.873 20.7378C67.873 26.8777 72.7401 31.8571 78.5244 31.8571C82.3431 31.8571 85.3195 30.1536 87.0042 28.2443C87.2288 27.9822 87.2101 27.5891 86.9481 27.3644L84.084 24.8748C83.8219 24.6314 83.3914 24.6876 83.1855 24.9684C83.1855 24.9684 83.1667 24.9871 83.148 25.0058C82.3431 25.9418 80.7145 26.9339 78.5056 26.9339C76.4839 26.9339 74.5184 25.6048 73.5637 23.658C73.3578 23.2462 73.6573 22.7782 74.1253 22.7782H87.884C88.4082 22.7782 88.8574 22.3664 88.9136 21.8422C88.9697 21.2994 88.9697 20.7378 88.9697 20.1575C88.9697 20.1201 88.9697 20.1013 88.9697 20.0639C88.9697 19.0343 88.82 18.0422 88.5392 17.0875C88.5392 17.0875 88.5392 17.0501 88.5392 17.0314V17.0501ZM82.7175 18.8097H74.0879C73.6386 18.8097 73.3391 18.3417 73.5263 17.9299C74.4435 16.0205 76.3342 14.6727 78.5244 14.6727C81.0515 14.6727 82.5864 16.3013 83.2791 17.9486C83.4475 18.3604 83.148 18.8097 82.7175 18.8097V18.8097ZM123.507 9.45004C121.448 9.45004 119.576 10.1988 118.153 11.3781C117.741 11.7151 117.142 11.4343 117.142 10.9101V10.7604C117.142 10.4234 116.862 10.1427 116.525 10.1427H112.968C112.631 10.1427 112.35 10.4234 112.35 10.7604V39.3823C112.35 39.7192 112.631 40 112.968 40H116.993C117.33 40 117.61 39.7192 117.61 39.3823V30.7152C117.61 30.2098 118.172 29.9103 118.584 30.2098C119.932 31.2019 121.691 31.8009 123.526 31.8009C129.946 31.8009 134.102 26.7841 134.102 20.6068C134.102 14.4294 129.853 9.45004 123.526 9.45004H123.507ZM123.32 26.597C120.25 26.597 117.741 23.9201 117.741 20.588C117.741 17.256 120.231 14.5791 123.32 14.5791C126.408 14.5791 128.861 17.256 128.861 20.588C128.861 23.9201 126.371 26.597 123.32 26.597Z"
    fill="#005285"
  />
<path
    d="M25.9043 2.63619C18.0609 -2.36187 7.63426 -0.0406717 2.63619 7.80273C-2.36187 15.6461 -0.0406717 26.0728 7.80273 31.0709C15.6461 36.0689 26.0728 33.7477 31.0709 25.9043C36.0689 18.0609 33.7477 7.63426 25.9043 2.63619ZM22.8531 20.6629C20.7378 23.9762 16.3575 24.9496 13.0441 22.8344C9.73083 20.7191 8.75742 16.3388 10.8727 13.0254C12.988 9.7121 17.3683 8.7387 20.6816 10.854C23.995 12.9693 24.9684 17.3496 22.8531 20.6629Z"
    fill="#005285"
  />
<path
    d="M7.44702 25.6423C7.11007 25.6423 6.77312 25.4925 6.54849 25.2117C1.9061 19.521 2.76718 11.1161 8.45786 6.47366C12.1081 3.49728 17.1249 2.67363 21.5427 4.32093C22.1417 4.54557 22.4599 5.21946 22.2353 5.81848C22.0107 6.4175 21.3368 6.73573 20.7377 6.5111C17.0875 5.1633 12.9505 5.8372 9.95541 8.28943C5.25686 12.1082 4.56424 19.0531 8.38299 23.7329C8.79481 24.2383 8.71994 24.9684 8.21451 25.3802C7.98988 25.5487 7.72781 25.6423 7.48446 25.6423H7.44702Z"
    fill="#30B0FF"
  />
<path
    d="M16.7506 30.2472C16.3387 30.2472 15.9269 30.2285 15.5151 30.1911C13.7368 30.0226 12.0333 29.5172 10.4609 28.6748C9.89929 28.3753 9.67466 27.6639 9.97416 27.0836C10.2737 26.5221 10.985 26.2974 11.5653 26.597C12.8569 27.2896 14.2609 27.7014 15.7397 27.8511C18.6599 28.1319 21.5053 27.2334 23.7703 25.3615C24.2757 24.9496 25.0058 25.0245 25.4176 25.5112C25.8294 26.0167 25.7546 26.7467 25.2679 27.1585C22.8531 29.1615 19.8767 30.2472 16.7693 30.2472H16.7506Z"
    fill="#27A4F2"
  />
<path
    d="M27.3083 24.0324C27.1024 24.0324 26.8965 23.9762 26.7093 23.8639C26.1477 23.5457 25.9605 22.8156 26.2974 22.2541C27.4019 20.3634 27.926 18.2107 27.795 16.0205C27.7576 15.3841 28.2443 14.8225 28.8807 14.785C29.5172 14.7476 30.0788 15.2343 30.1162 15.8708C30.2847 18.5102 29.6482 21.1309 28.3004 23.4334C28.0758 23.8078 27.6827 24.0137 27.2896 24.0137L27.3083 24.0324Z"
    fill="#1696E6"
  />
<path
    d="M27.9447 13.4185C27.4767 13.4185 27.0461 13.1377 26.859 12.6885C26.7279 12.3515 26.5782 12.0146 26.4097 11.6964C26.1102 11.1161 26.3348 10.4234 26.9151 10.1239C27.4767 9.82442 28.188 10.0491 28.4875 10.6294C28.6934 11.0225 28.8806 11.4156 29.0304 11.8274C29.2737 12.4264 28.9742 13.1003 28.3752 13.3437C28.2255 13.3998 28.0944 13.4185 27.9447 13.4185Z"
    fill="#008CE3"
  />
<path
    d="M24.7811 8.88845C24.3131 8.88845 23.8639 8.60766 23.6954 8.13968C23.6954 8.10224 23.6767 8.0648 23.6579 8.04608C23.4708 7.40962 23.8077 6.75445 24.4254 6.56725C25.0432 6.38006 25.7171 6.73573 25.923 7.35347C26.1102 7.93376 25.7919 8.58894 25.2116 8.81357C25.0806 8.86973 24.9309 8.88845 24.7998 8.88845H24.7811Z"
    fill="#0078C2"
  />
</svg>
